<?xml version="1.0" encoding="UTF-8" standalone="no"?><svg xmlns:svg="http://www.w3.org/2000/svg" xmlns="http://www.w3.org/2000/svg" version="1.1" style="overflow:visible" viewBox="-250 -250 500 500" height="2000px" width="2000px"><rect fill-opacity="0" fill="rgb(0,0,0)" height="500" width="500" y="-250" x="-250" /><svg version="1.1" y="-250" x="-250" viewBox="-250 -250 500 500" height="500px" width="500px" style="overflow:visible"><g transform="rotate(0,0,0)" stroke-linejoin="round" fill="#fff"><path stroke-linecap="butt" stroke-linejoin="round" stroke="none" fill="rgb(102,102,102)" d="m-106.894 82.033999l29.2957 81.2802l132.303-17.9572l6.61517-79.3899z" /><path stroke-linecap="butt" stroke-linejoin="round" stroke="none" fill="rgb(203,133,109)" d="m2.342999-189.276201l-5.93025 10.1207l-3.63812-9.73855c-12.1754 1.9441-23.5007 9.31733-26.1395 20.5323c-4.6221-5.84828-12.5404-9.72072-20.8773-10.1508l-5.43019 10.3963l-3.23191-9.55086c-8.78569 2.26106-16.93 8.97853-21.0028 21.9426c-1.28326-3.46203-7.66844-6.28303-15.0521-5.787l-3.93698 9.61732l-3.92222-7.79722c-8.99301 3.69365-17.3924 13.3559-18.3541 33.452c-2.02254-3.57869-7.48136-6.89963-13.8616-7.21021l-4.54977 7.81568l-2.76677-6.78935c-9.0834 3.09131-18.1553 13.5397-21.0046 38.1444c-6.73878 58.1904 2.50294 140.011 16.059899 169.385c22.816 49.4352 57.7395 79.1022 69.2895 105.61c7.71019 17.695 120.255 5.33881 141.288-9.70962c17.5423-12.5507 54.7014-61.3682 63.4827-93.7734c8.222989-30.3448 34.892-106.556 45.9758-149.731c7.8574-30.6068-38.2414-32.686701-49.8537-4.3084c-5.55755 13.5817-16.377 50.5607-23.8508 74.441c-22.5014-12.8141-46.1577-25.8333-65.6053-35.885c4.8255-51.8251 3.66036-100.061-2.57851-130.866002c-2.6234-12.9533-13.0314-19.1967-24.5097-20.1594zm-8.54028 273.665c20.9832 0.17481 39.915 2.96345 47.2364 8.05935c13.8688 9.65305 10.7258 35.2526-7.27041 44.2304c-29.6472 14.7901-107.275 5.98821-107.275 5.98821c-8.69174-18.9782-13.7534-34.2308-7.99948-41.3471c9.58952-11.86 44.6407-17.1864 75.3084-16.9309z" /><path stroke-linecap="butt" stroke-linejoin="round" stroke="none" fill="rgb(163,104,83)" d="m29.430999-38.251001c-2.79583 24.4694-4.83674 46.0654-4.37202 66.3254c0.41698 18.1785 32.4375 32.3191 46.9918 15.6703c11.9761-13.6996 15.8249-28.6549 22.9855-46.1107c-22.5014-12.8141-46.1577-25.8333-65.6053-35.885z" /><path stroke-linecap="butt" stroke-linejoin="round" stroke="none" fill="rgb(220,220,220)" d="m-0.819-189.4258c-2.13522-0.0013-4.28175 0.192312-6.4066 0.531629c-9.93821 83.2576-9.32483 187.413-6.54134 259.154l6.09534 5.9245l3.3549-6.09801c-2.79303-71.885-3.35334-176.785 6.65947-259.365c-1.04758-0.08784-2.10139-0.147034-3.16177-0.147675zm-54.7376 10.8633c-2.45088-0.01857-4.92291 0.271183-7.34793 0.895278c-7.52574 65.9465-12.5939 176.929 6.58378 252.315l7.96008 6.45498l0.45286-7.88005c-18.9262-73.7177-13.8987-186.493-6.33462-251.736c-0.43748-0.02257-0.87479-0.04651-1.31417-0.04984zm-43.3234 17.0454c-2.56093 0.152442-5.23752 0.695379-7.87028 1.75733c-4.78533 35.8561-8.76318 84.7234-7.46421 130.776998c1.31605 46.6595 7.62073 90.3757 25.4326 115.242l7.92364 2.90132l-1.29741-6.68364c-15.9616-21.9582-23.1908-65.1734-24.5023-111.673c-1.31604-46.6589 2.87924-96.6032 7.77799-132.32zm-40.5456 28.0527c-2.17211-0.063-4.4444 0.22664-6.71853 0.97281c-7.27137 41.6471-11.4376 87.2142-6.69084 128.946c5.09126 44.7607 20.5336 85.3111 53.7409 111.127l6.84597-2.31938l-6.33838-5.77504c-28.9456-24.4794-42.8943-61.7431-47.6757-103.78c-4.71481-41.451-0.42704-87.3285 6.99909-129.16c-0.0547-0.002-0.10755-0.009-0.16243-0.011z" /><path stroke-linecap="butt" stroke-linejoin="round" stroke="none" fill="rgb(174,91,62)" d="m-2.028 70.074c-4.27027-0.031601-8.75228 0.0465-13.4481 0.23628c-34.3624 1.38857-78.7398 7.86419-83.103 29.1399c-4.91201 23.9514 22.5275 57.1034 19.8215 66.1564c-1.04132 3.48372-4.045 5.34348-7.88136 6.21157c1.79128 3.01766 3.361 5.97853 4.63284 8.8974c1.50053 3.44376 6.98365 5.74523 14.9783 7.11423c13.4446-0.21414 8.57505-15.5674 2.17245-28.8796c73.8382 4.26004 96.4528-2.58928 112.888-14.1786c17.2903-12.1924 19.2456-45.8566 8.60304-58.1358c-9.29136-10.7203-28.7717-16.340801-58.6635-16.5617zm-4.16955 14.3152c20.9832 0.17481 39.915 2.96345 47.2364 8.05935c13.8688 9.65305 10.7258 35.2526-7.27041 44.2304c-29.6472 14.7901-107.275 5.98821-107.275 5.98821c-8.69174-18.9782-13.7534-34.2308-7.99948-41.3471c9.58952-11.86 44.6407-17.1864 75.3084-16.9309z" /><path stroke-linecap="round" stroke-linejoin="round" stroke-width="6" stroke-opacity="1" stroke="rgb(68,68,68)" fill="none" d="m-125.172-126.239c-5.37594 41.3909-8.54795 91.5066 0.504909 148.597m40.7605-178.082c-3.49659 42.2554-10.1471 111.933-3.23992 167.225m53.7821-179.862c-6.22727 56.37-7.99803 112.103-5.48741 167.225m-34.654 143.804c6.24942 11.7856 26.6657 44.8771 6.44949 45.1637m33.6919-356.193c-11.1192-14.069-41.3031-16.7715-50.5422 12.6373c-3.46066-8.78106-39.2728-13.4292-41.2654 29.4851c-5.50374-9.73833-36.4483-17.5613-42.1832 31.9604c-6.73878 58.1904 2.50336 140.011 16.0603 169.385c22.816 49.4352 57.7395 79.1022 69.2895 105.61c7.71019 17.695 120.255 5.33881 141.288-9.70962c17.5423-12.5507 54.7014-61.3682 63.4827-93.7734c8.222989-30.3448 34.892-106.556 45.9758-149.731c7.8574-30.6068-38.2414-32.686701-49.8537-4.3084c-5.55755 13.5817-16.377 50.5607-23.8508 74.441c-22.5014-12.8141-46.1577-25.8333-65.6053-35.885c4.8255-51.8251 3.66036-100.061-2.57851-130.866002c-6.10757-30.1567-54.3837-24.0395-60.2176 0.754987zm27.1676 252.751c20.9832 0.17481 39.915 2.96345 47.2364 8.05935c13.8688 9.65305 10.7258 35.2526-7.27041 44.2304c-29.6472 14.7901-107.275 5.98821-107.275 5.98821c-8.69174-18.9782-13.7534-34.2308-7.99948-41.3471c9.58952-11.86 44.6407-17.1864 75.3084-16.9309z" /><path stroke-linecap="butt" stroke-linejoin="round" stroke-width="6" stroke-opacity="1" stroke="rgb(68,68,68)" fill="rgb(203,133,109)" d="m23.052999-173.2296c58.0991 5.87767 101.236 32.316 123.359 74.5213c-3.11008 9.2758-13.8806 21.7888-19.4205 27.1714c-21.602-38.8275-50.1557-53.8782-100.643-63.5981z" /><path stroke-linecap="butt" stroke-linejoin="round" stroke-width="6" stroke-opacity="1" stroke="rgb(68,68,68)" fill="rgb(203,133,109)" d="m25.451-102.186c50.0165 11.5334 75.1833 29.1152 93.1196 51.958c-1.61034 6.49371-7.54966 21.013-12.395 28.3183c-22.9017-17.5874-38.5051-34.079-81.086-44.638z" /><path stroke-linecap="butt" stroke-linejoin="round" stroke-width="6" stroke-opacity="1" stroke="rgb(68,68,68)" fill="rgb(203,133,109)" d="m85.781-139.108c10.7469 3.30816 24.9997 14.2792 31.2687 21.4124c-9.79507 39.4-30.5528 106.487-43.9323 130.752998l-28.8663-15.1137c12.17-23.9527 30.9963-83.145 41.5299-137.051z" /></g></svg></svg>